<!DOCTYPE svg PUBLIC "-//W3C//DTD SVG 20010904//EN" "http://www.w3.org/TR/2001/REC-SVG-20010904/DTD/svg10.dtd">
<svg version="1.0" xmlns="http://www.w3.org/2000/svg" width="30px" height="30px" viewBox="0 0 300 300" preserveAspectRatio="xMidYMid meet">
<g id="layer101" fill="#171617" stroke="none">
 <path d="M82 283 c-97 -48 -108 -192 -19 -255 43 -31 122 -35 165 -9 45 29 72 77 72 131 0 113 -115 184 -218 133z"/>
 </g>
<g id="layer102" fill="#212020" stroke="none">
 <path d="M95 291 c-11 -5 -20 -12 -20 -17 0 -14 -55 -101 -55 -88 0 6 11 28 25 48 30 44 15 49 -16 5 -47 -66 -31 -165 34 -211 43 -31 122 -35 165 -9 96 61 96 202 0 261 -34 20 -96 25 -133 11z m88 -18 c-18 -2 -48 -2 -65 0 -18 2 -4 4 32 4 36 0 50 -2 33 -4z m97 -76 c0 -6 -6 -3 -12 8 -6 11 -18 29 -27 40 -9 12 -4 8 12 -7 15 -16 27 -34 27 -41z m7 -64 c-3 -10 -5 -2 -5 17 0 19 2 27 5 18 2 -10 2 -26 0 -35z m-16 -51 c-15 -27 -60 -62 -80 -62 -9 1 -1 7 17 15 18 8 40 28 50 44 18 33 30 35 13 3z m-187 -51 c-6 -6 -54 40 -54 51 0 5 13 -3 29 -19 16 -15 27 -30 25 -32z"/>
 </g>
<g id="layer103" fill="#202121" stroke="none">
 <path d="M95 291 c-11 -5 -20 -12 -20 -17 -1 -17 -55 -99 -55 -82 0 9 12 30 26 47 14 17 21 31 16 31 -20 0 -55 -62 -59 -104 -18 -158 194 -229 277 -94 42 69 17 166 -52 208 -34 20 -96 25 -133 11z m113 -16 c3 -3 -24 -4 -59 -4 -47 1 -56 3 -34 8 31 7 85 5 93 -4z m77 -124 c0 -49 -4 -64 -25 -86 -25 -27 -88 -61 -97 -52 -2 3 12 10 31 17 43 14 73 50 82 96 8 45 0 75 -33 116 l-26 33 34 -33 c31 -30 34 -37 34 -91z m-194 -113 c22 -12 27 -18 15 -18 -23 0 -86 63 -86 86 0 12 6 7 18 -15 10 -19 34 -43 53 -53z"/>
 </g>
<g id="layer104" fill="#313131" stroke="none">
 <path d="M92 289 c-13 -5 -21 -13 -18 -18 3 -5 -3 -20 -14 -34 -11 -14 -20 -27 -20 -30 0 -2 50 -4 110 -5 61 0 110 2 110 5 0 3 -10 18 -21 35 l-22 30 22 -13 c51 -33 65 -133 27 -192 -23 -34 -94 -61 -140 -53 -105 20 -148 154 -75 232 13 13 18 24 11 24 -20 0 -55 -61 -59 -104 -18 -158 194 -229 277 -94 42 69 17 166 -52 208 -35 21 -96 25 -136 9z m103 -9 c14 -6 0 -9 -45 -9 -45 0 -59 3 -45 9 11 5 31 9 45 9 14 0 34 -4 45 -9z"/>
 <path d="M70 130 l0 -60 79 0 c85 0 91 4 91 60 0 56 -6 60 -91 60 l-79 0 0 -60z"/>
 </g>
<g id="layer105" fill="#414040" stroke="none">
 <path d="M82 283 c-97 -48 -108 -192 -19 -255 43 -31 122 -35 165 -9 45 29 72 77 72 131 0 113 -115 184 -218 133z m137 -11 c93 -50 93 -195 0 -242 -49 -25 -95 -25 -136 0 -155 94 -23 327 136 242z"/>
 <path d="M72 247 c-12 -13 -22 -26 -22 -30 0 -4 47 -7 105 -7 l106 0 -23 30 c-20 28 -27 30 -83 30 -51 0 -65 -4 -83 -23z"/>
 <path d="M74 177 c-3 -8 -4 -34 -2 -58 l3 -44 75 0 75 0 0 55 0 55 -73 3 c-55 2 -74 0 -78 -11z"/>
 </g>
<g id="layer106" fill="#464646" stroke="none">
 <path d="M82 283 c-97 -48 -108 -192 -19 -255 43 -31 122 -35 165 -9 45 29 72 77 72 131 0 113 -115 184 -218 133z m135 -10 c46 -22 73 -67 73 -123 0 -169 -245 -190 -276 -25 -11 59 32 138 86 158 30 11 83 7 117 -10z"/>
 <path d="M72 247 c-12 -13 -22 -26 -22 -30 0 -4 45 -7 100 -7 55 0 100 2 100 5 0 3 -7 17 -16 30 -14 22 -23 25 -78 25 -52 0 -66 -4 -84 -23z"/>
 </g>
<g id="layer107" fill="#32724e" stroke="none">
 <path d="M82 283 c-97 -48 -108 -192 -19 -255 43 -31 122 -35 165 -9 45 29 72 77 72 131 0 113 -115 184 -218 133z m139 -8 c92 -48 92 -202 0 -250 -110 -56 -230 36 -207 159 7 35 46 82 81 97 33 13 94 10 126 -6z"/>
 <path d="M72 247 c-12 -13 -22 -26 -22 -30 0 -4 45 -7 100 -7 55 0 100 4 100 8 0 5 -10 18 -23 30 -34 32 -125 31 -155 -1z"/>
 </g>
<g id="layer108" fill="#665b5e" stroke="none">
 <path d="M82 283 c-97 -48 -108 -192 -19 -255 43 -31 122 -35 165 -9 45 29 72 77 72 131 0 113 -115 184 -218 133z m139 -8 c92 -48 92 -202 0 -250 -110 -56 -230 36 -207 159 7 35 46 82 81 97 33 13 94 10 126 -6z"/>
 <path d="M110 263 c-26 -5 -60 -30 -60 -45 0 -4 45 -8 100 -8 55 0 100 4 100 8 0 5 -10 18 -23 30 -23 22 -56 26 -117 15z"/>
 </g>
<g id="layer109" fill="#725f66" stroke="none">
 <path d="M155 291 c79 -10 107 -31 131 -98 8 -23 13 -30 14 -18 0 30 -36 83 -72 105 -22 13 -49 19 -78 19 l-45 -2 50 -6z"/>
 <path d="M46 255 c-61 -60 -61 -150 0 -210 19 -19 40 -35 47 -35 7 0 -1 9 -18 20 -16 11 -38 34 -47 52 -35 65 -14 148 47 188 17 11 25 20 18 20 -7 0 -28 -16 -47 -35z"/>
 <path d="M73 248 c-29 -37 -27 -38 78 -38 l101 0 -14 23 c-13 19 -26 22 -85 25 -48 2 -73 -1 -80 -10z"/>
 <path d="M288 114 c-10 -44 -46 -82 -93 -99 -25 -9 -32 -14 -19 -15 48 -1 131 85 122 127 -3 12 -6 7 -10 -13z"/>
 </g>
<g id="layer110" fill="#746f6f" stroke="none">
 <path d="M193 286 c50 -18 67 -34 88 -81 10 -22 19 -33 19 -25 0 44 -79 120 -125 120 -12 -1 -5 -6 18 -14z"/>
 <path d="M46 255 c-61 -60 -61 -150 0 -210 19 -19 40 -35 47 -35 7 0 -1 9 -18 20 -16 11 -38 34 -47 52 -35 65 -14 148 47 188 17 11 25 20 18 20 -7 0 -28 -16 -47 -35z"/>
 <path d="M66 235 l-16 -25 101 0 101 0 -14 23 c-13 19 -26 22 -85 25 -66 3 -71 1 -87 -23z"/>
 <path d="M282 97 c-15 -42 -40 -65 -89 -83 -25 -8 -31 -13 -17 -14 44 0 133 87 122 121 -2 6 -9 -5 -16 -24z"/>
 </g>
<g id="layer111" fill="#4b9d6e" stroke="none">
 <path d="M30 239 c-12 -16 -21 -32 -18 -34 2 -2 13 12 26 31 28 42 21 45 -8 3z"/>
 <path d="M66 235 c-9 -14 -13 -25 -9 -25 5 0 13 8 20 18 8 14 25 19 72 21 54 2 65 -1 82 -21 l20 -23 -17 28 c-15 25 -21 27 -84 27 -61 0 -69 -2 -84 -25z"/>
 <path d="M110 230 c0 -5 16 -10 35 -10 19 0 35 5 35 10 0 6 -16 10 -35 10 -19 0 -35 -4 -35 -10z"/>
 <path d="M10 94 c0 -5 12 -22 26 -39 l26 -30 -23 35 c-29 45 -29 45 -29 34z"/>
 </g>
<g id="layer112" fill="#84787c" stroke="none">
 <path d="M30 239 c-12 -16 -21 -32 -18 -34 2 -2 13 12 26 31 28 42 21 45 -8 3z"/>
 <path d="M66 235 c-9 -14 -13 -25 -9 -25 10 0 36 40 30 46 -2 3 -12 -7 -21 -21z"/>
 <path d="M169 253 c29 -3 50 -12 63 -26 19 -22 19 -22 2 6 -14 24 -22 27 -63 25 l-46 -1 44 -4z"/>
 <path d="M107 233 c6 -15 73 -18 73 -4 0 5 -17 11 -39 13 -28 2 -37 0 -34 -9z"/>
 <path d="M10 94 c0 -5 12 -22 26 -39 l26 -30 -23 35 c-29 45 -29 45 -29 34z"/>
 </g>
<g id="layer113" fill="#8d8787" stroke="none">
 <path d="M110 230 c0 -5 16 -10 35 -10 19 0 35 5 35 10 0 6 -16 10 -35 10 -19 0 -35 -4 -35 -10z"/>
 </g>
<g id="layer114" fill="#adabab" stroke="none">
 <path d="M120 230 c0 -5 14 -10 30 -10 17 0 30 5 30 10 0 6 -13 10 -30 10 -16 0 -30 -4 -30 -10z"/>
 </g>
<g id="layer115" fill="#d8d7d7" stroke="none">
 <path d="M120 230 c0 -5 11 -10 25 -10 14 0 25 5 25 10 0 6 -11 10 -25 10 -14 0 -25 -4 -25 -10z"/>
 </g>
<g id="layer116" fill="#ededed" stroke="none">
 </g>

</svg>