<svg id="レイヤー_1" data-name="レイヤー 1" xmlns="http://www.w3.org/2000/svg" viewBox="0 0 62.87 59.19"><defs><style>.cls-1{fill:#e0e0e0;}.cls-2{fill:#2b2b2b;}.cls-3{fill:#d8d6d6;}.cls-4{fill:#364770;}.cls-5{fill:#232323;}</style></defs><title>rulo</title><path class="cls-1" d="M48.05,52.75,61.59,29.3A17.87,17.87,0,0,0,46.12,2.5H19A17.87,17.87,0,0,0,3.56,29.3L17.11,52.75A17.86,17.86,0,0,0,48.05,52.75Z" transform="translate(-1.14 -2.5)"/><path class="cls-2" d="M44.61,44.33l8.17-16.59A13.35,13.35,0,0,0,40.8,8.5H24.47a13.35,13.35,0,0,0-12,19.24l8.17,16.59A13.35,13.35,0,0,0,44.61,44.33Z" transform="translate(-1.14 -2.5)"/><path class="cls-3" d="M43.28,42.74l7.23-15.57A11.73,11.73,0,0,0,39.86,10.5H25.41A11.73,11.73,0,0,0,14.77,27.17L22,42.74A11.74,11.74,0,0,0,43.28,42.74Z" transform="translate(-1.14 -2.5)"/><rect class="cls-4" x="27.11" y="29" width="8" height="8" rx="4" ry="4"/><rect class="cls-5" x="26.11" width="11" height="2"/></svg>